<svg xmlns="http://www.w3.org/2000/svg" width="1611" height="771" viewBox="0 0 1611 771"><defs><style type="text/css"/></defs><g transform="translate(1031.6419495947866 301.64938549747075) scale(1)"><g class="relationship"><g transform="translate(-585.4855932625006 97.56505264002344) rotate(179.99999999999997)" stroke-width="5" stroke="#000000"><path d="M 59 0 L 195.11451821453758 0"/><polygon points="-24.8621506177483,0 -27.62461179749811,9.20820393249937 0,0 -27.62461179749811,-9.20820393249937" fill="#000000" transform="translate(219.9766688322859 0) rotate(0)" stroke="none"/></g><g transform="translate(-712.5428523697694 97.56505264002351) rotate(360) translate(0 -13)"><g transform="translate(0 0)"><g transform="translate(-26.34765625 0)" fill="#ffffff" stroke="#000000" stroke-width="0"><rect x="0" y="0" width="52.6953125" height="26" rx="5" ry="5" stroke="none"/><text xml:space="preserve" x="5" y="17.5" stroke="none" text-anchor="left" font-family="sans-serif" font-size="16" font-weight="normal" fill="#000000">Inside</text></g></g></g></g><g class="relationship"><g transform="translate(-207.999993968434 97.5650526400235) rotate(-180)" stroke-width="5" stroke="#000000"><path d="M 59 0 L 293.6234486763183 0"/><polygon points="-24.8621506177483,0 -27.62461179749811,9.20820393249937 0,0 -27.62461179749811,-9.20820393249937" fill="#000000" transform="translate(318.4855992940666 0) rotate(0)" stroke="none"/></g><g transform="translate(-384.31171830659315 97.56505264002347) rotate(0) translate(0 -13)"><g transform="translate(0 0)"><g transform="translate(-25.90234375 0)" fill="#ffffff" stroke="#000000" stroke-width="0"><rect x="0" y="0" width="51.8046875" height="26" rx="5" ry="5" stroke="none"/><text xml:space="preserve" x="5" y="17.5" stroke="none" text-anchor="left" font-family="sans-serif" font-size="16" font-weight="normal" fill="#000000">inside</text></g></g></g></g><g class="relationship"><g transform="translate(-207.999993968434 97.5650526400235) rotate(149.99999999999997)" stroke-width="5" stroke="#000000"><path d="M 59 0 L 352.02067411752495 0"/><polygon points="-24.8621506177483,0 -27.62461179749811,9.20820393249937 0,0 -27.62461179749811,-9.20820393249937" fill="#000000" transform="translate(376.88282473527323 0) rotate(0)" stroke="none"/></g><g transform="translate(-385.97716660162484 200.32022116940482) rotate(329.99999999999994) translate(0 -13)"><g transform="translate(0 0)"><g transform="translate(-17 0)" fill="#ffffff" stroke="#000000" stroke-width="0"><rect x="0" y="0" width="34" height="26" rx="5" ry="5" stroke="none"/><text xml:space="preserve" x="5" y="17.5" stroke="none" text-anchor="left" font-family="sans-serif" font-size="16" font-weight="normal" fill="#000000">ON</text></g></g></g></g><g class="relationship"><g transform="translate(-207.999993968434 97.5650526400235) rotate(0.7936412264574214)" stroke-width="5" stroke="#000000"><path d="M 59 0 L 240.57046350240878 0"/><polygon points="-24.8621506177483,0 -27.62461179749811,9.20820393249937 0,0 -27.62461179749811,-9.20820393249937" fill="#000000" transform="translate(265.4326141201571 0) rotate(0)" stroke="none"/></g><g transform="translate(-58.22913150460428 99.639759270515) rotate(0.7936412264574214) translate(0 -22.6)"><g transform="translate(0 0)"><g transform="translate(-25.7421875 0)" fill="#ffffff" stroke="#000000" stroke-width="0"><rect x="0" y="0" width="51.484375" height="26" rx="5" ry="5" stroke="none"/><text xml:space="preserve" x="5" y="17.5" stroke="none" text-anchor="left" font-family="sans-serif" font-size="16" font-weight="normal" fill="#000000">DATE</text></g></g><g transform="translate(0 26)"><g transform="translate(-38.6875 0)" fill="white"><rect x="0" y="0" width="77.375" height="19.2" rx="0" ry="0" stroke="none"/><g font-family="sans-serif" font-size="16" font-weight="normal" fill="#000000" text-anchor="end"><text xml:space="preserve" x="68.484375" y="14.1" stroke="none">distance:</text><text xml:space="preserve" x="72.9296875" y="14.1" stroke="none" text-anchor="start"></text></g></g></g></g></g><g class="relationship"><g transform="translate(116.40149648611532 102.05883675874632) rotate(0.7936412264574298)" stroke-width="5" stroke="#000000"><path d="M 59 0 L 192.37795979543407 0"/><polygon points="-24.8621506177483,0 -27.62461179749811,9.20820393249937 0,0 -27.62461179749811,-9.20820393249937" fill="#000000" transform="translate(217.24011041318238 0) rotate(0)" stroke="none"/></g><g transform="translate(242.07841871265302 103.79978115576571) rotate(0.7936412264574298) translate(0 -13)"><g transform="translate(0 0)"><g transform="translate(-28.55078125 0)" fill="#ffffff" stroke="#000000" stroke-width="0"><rect x="0" y="0" width="57.1015625" height="26" rx="5" ry="5" stroke="none"/><text xml:space="preserve" x="5" y="17.5" stroke="none" text-anchor="left" font-family="sans-serif" font-size="16" font-weight="normal" fill="#000000">FROM</text></g></g></g></g><g class="relationship"><g transform="translate(-585.4855932625006 315.50646500766027) rotate(-90)" stroke-width="5" stroke="#000000"><path d="M 59 0 L 134.07926174988853 0"/><polygon points="-24.8621506177483,0 -27.62461179749811,9.20820393249937 0,0 -27.62461179749811,-9.20820393249937" fill="#000000" transform="translate(158.94141236763681 0) rotate(0)" stroke="none"/></g><g transform="translate(-585.4855932625006 218.966834132716) rotate(90) translate(0 -13)"><g transform="translate(0 0)"><g transform="translate(-25.90234375 0)" fill="#ffffff" stroke="#000000" stroke-width="0"><rect x="0" y="0" width="51.8046875" height="26" rx="5" ry="5" stroke="none"/><text xml:space="preserve" x="5" y="17.5" stroke="none" text-anchor="left" font-family="sans-serif" font-size="16" font-weight="normal" fill="#000000">inside</text></g></g></g></g><g class="relationship"><g transform="translate(-207.999993968434 97.5650526400235) rotate(33.89423909916921)" stroke-width="5" stroke="#000000"><path d="M 59 0 L 306.9508305304389 0"/><polygon points="-24.8621506177483,0 -27.62461179749811,9.20820393249937 0,0 -27.62461179749811,-9.20820393249937" fill="#000000" transform="translate(331.8129811481872 0) rotate(0)" stroke="none"/></g><g transform="translate(-56.11789103984603 199.60342484121702) rotate(33.89423909916921) translate(0 -13)"><g transform="translate(0 0)"><g transform="translate(-17 0)" fill="#ffffff" stroke="#000000" stroke-width="0"><rect x="0" y="0" width="34" height="26" rx="5" ry="5" stroke="none"/><text xml:space="preserve" x="5" y="17.5" stroke="none" text-anchor="left" font-family="sans-serif" font-size="16" font-weight="normal" fill="#000000">ON</text></g></g></g></g><g class="relationship"><g transform="translate(116.40149648611532 315.5064650076602) rotate(-90)" stroke-width="5" stroke="#000000"><path d="M 59 0 L 129.5854776311656 0"/><polygon points="-24.8621506177483,0 -27.62461179749811,9.20820393249937 0,0 -27.62461179749811,-9.20820393249937" fill="#000000" transform="translate(154.44762824891387 0) rotate(0)" stroke="none"/></g><g transform="translate(116.40149648611532 221.21372619207742) rotate(90) translate(0 -13)"><g transform="translate(0 0)"><g transform="translate(-17 0)" fill="#ffffff" stroke="#000000" stroke-width="0"><rect x="0" y="0" width="34" height="26" rx="5" ry="5" stroke="none"/><text xml:space="preserve" x="5" y="17.5" stroke="none" text-anchor="left" font-family="sans-serif" font-size="16" font-weight="normal" fill="#000000">ON</text></g></g></g></g><g class="relationship"><g transform="translate(-207.999993968434 97.5650526400235) rotate(63.87928956349094)" stroke-width="5" stroke="#000000"><path d="M 59 0 L 268.9821269599197 0"/><polygon points="-24.8621506177483,0 -27.62461179749811,9.20820393249937 0,0 -27.62461179749811,-9.20820393249937" fill="#000000" transform="translate(293.844277577668 0) rotate(0)" stroke="none"/></g><g transform="translate(-135.8006738991449 244.8074618936776) rotate(63.87928956349094) translate(0 -13)"><g transform="translate(0 0)"><g transform="translate(-22.92578125 0)" fill="#ffffff" stroke="#000000" stroke-width="0"><rect x="0" y="0" width="45.8515625" height="26" rx="5" ry="5" stroke="none"/><text xml:space="preserve" x="5" y="17.5" stroke="none" text-anchor="left" font-family="sans-serif" font-size="16" font-weight="normal" fill="#000000">WAS</text></g></g></g></g><g class="relationship"><g transform="translate(-207.999993968434 97.5650526400235) rotate(-90)" stroke-width="5" stroke="#000000"><path d="M 59 0 L 261.3522875197459 0"/><polygon points="-24.8621506177483,0 -27.62461179749811,9.20820393249937 0,0 -27.62461179749811,-9.20820393249937" fill="#000000" transform="translate(286.21443813749426 0) rotate(0)" stroke="none"/></g><g transform="translate(-207.999993968434 -62.61109111984946) rotate(90) translate(0 -13)"><g transform="translate(0 0)"><g transform="translate(-22.92578125 0)" fill="#ffffff" stroke="#000000" stroke-width="0"><rect x="0" y="0" width="45.8515625" height="26" rx="5" ry="5" stroke="none"/><text xml:space="preserve" x="5" y="17.5" stroke="none" text-anchor="left" font-family="sans-serif" font-size="16" font-weight="normal" fill="#000000">WAS</text></g></g></g></g><g class="relationship"><g transform="translate(-207.999993968434 97.5650526400235) rotate(113.40601180934749)" stroke-width="5" stroke="#000000"><path d="M 59 0 L 261.3522875197459 0"/><polygon points="-24.8621506177483,0 -27.62461179749811,9.20820393249937 0,0 -27.62461179749811,-9.20820393249937" fill="#000000" transform="translate(286.21443813749426 0) rotate(0)" stroke="none"/></g><g transform="translate(-271.62903559643615 244.56077397668508) rotate(293.4060118093475) translate(0 -13)"><g transform="translate(0 0)"><g transform="translate(-22.92578125 0)" fill="#ffffff" stroke="#000000" stroke-width="0"><rect x="0" y="0" width="45.8515625" height="26" rx="5" ry="5" stroke="none"/><text xml:space="preserve" x="5" y="17.5" stroke="none" text-anchor="left" font-family="sans-serif" font-size="16" font-weight="normal" fill="#000000">WAS</text></g></g></g></g><g class="node"><g fill="#ffffff" stroke="#000000" stroke-width="4"><circle cx="-585.4855932625006" cy="97.56505264002344" r="52"/></g><g transform="translate(-585.4855932625006 97.56505264002344)"><g transform="scale(0.7695314804687501) translate(0 0)"><g transform="translate(0 0)"><g font-family="sans-serif" font-size="50" font-weight="normal" fill="#000000" text-anchor="middle"><text xml:space="preserve" x="0" y="13" stroke="none">LGA</text></g></g></g><g transform="translate(3.429011037612589e-15 -94.4)"><g transform="translate(0 0)"><g transform="translate(-67.15234375 0)" fill="white"><rect x="0" y="0" width="134.3046875" height="38.4" rx="0" ry="0" stroke="none"/><g font-family="sans-serif" font-size="16" font-weight="normal" fill="#000000" text-anchor="end"><text xml:space="preserve" x="125.4140625" y="14.1" stroke="none">lga_id:</text><text xml:space="preserve" x="129.859375" y="14.1" stroke="none" text-anchor="start"></text><text xml:space="preserve" x="125.4140625" y="33.3" stroke="none" text-anchor="end">local_gov_name:</text><text xml:space="preserve" x="129.859375" y="33.3" stroke="none" text-anchor="start"></text></g></g></g></g></g></g><g class="node"><g fill="#ffffff" stroke="#000000" stroke-width="4"><circle cx="392.6151064660806" cy="105.88509641052492" r="52"/></g><g transform="translate(392.6151064660806 105.88509641052492)"><g transform="scale(0.33203191796875) translate(0 0)"><g transform="translate(0 0)"><g font-family="sans-serif" font-size="50" font-weight="normal" fill="#000000" text-anchor="middle"><text xml:space="preserve" x="0" y="13" stroke="none">WeatherStn</text></g></g></g><g transform="translate(56 -86.39999999999999)"><g transform="translate(0 0)"><g transform="translate(0 0)" fill="white"><rect x="0" y="0" width="130.7421875" height="172.79999999999998" rx="0" ry="0" stroke="none"/><g font-family="sans-serif" font-size="16" font-weight="normal" fill="#000000" text-anchor="end"><text xml:space="preserve" x="121.8515625" y="14.1" stroke="none">station_id:</text><text xml:space="preserve" x="126.296875" y="14.1" stroke="none" text-anchor="start"></text><text xml:space="preserve" x="121.8515625" y="33.3" stroke="none" text-anchor="end">station_name:</text><text xml:space="preserve" x="126.296875" y="33.3" stroke="none" text-anchor="start"></text><text xml:space="preserve" x="121.8515625" y="52.5" stroke="none" text-anchor="end">country:</text><text xml:space="preserve" x="126.296875" y="52.5" stroke="none" text-anchor="start"></text><text xml:space="preserve" x="121.8515625" y="71.7" stroke="none" text-anchor="end">region:</text><text xml:space="preserve" x="126.296875" y="71.7" stroke="none" text-anchor="start"></text><text xml:space="preserve" x="121.8515625" y="90.89999999999999" stroke="none" text-anchor="end">elevation:</text><text xml:space="preserve" x="126.296875" y="90.89999999999999" stroke="none" text-anchor="start"></text><text xml:space="preserve" x="121.8515625" y="110.1" stroke="none" text-anchor="end">daily_start_date:</text><text xml:space="preserve" x="126.296875" y="110.1" stroke="none" text-anchor="start"></text><text xml:space="preserve" x="121.8515625" y="129.3" stroke="none" text-anchor="end">daily_end_date:</text><text xml:space="preserve" x="126.296875" y="129.3" stroke="none" text-anchor="start"></text><text xml:space="preserve" x="121.8515625" y="148.5" stroke="none" text-anchor="end">longitude:</text><text xml:space="preserve" x="126.296875" y="148.5" stroke="none" text-anchor="start"></text><text xml:space="preserve" x="121.8515625" y="167.7" stroke="none" text-anchor="end">latitude:</text><text xml:space="preserve" x="126.296875" y="167.7" stroke="none" text-anchor="start"></text></g></g></g></g></g></g><g class="node"><g fill="#ffffff" stroke="#000000" stroke-width="4"><circle cx="116.40149648611532" cy="102.05883675874632" r="52"/></g><g transform="translate(116.40149648611532 102.05883675874632)"><g transform="scale(0.23632888867187501) translate(0 0)"><g transform="translate(0 0)"><g font-family="sans-serif" font-size="50" font-weight="normal" fill="#000000" text-anchor="middle"><text xml:space="preserve" x="0" y="13" stroke="none">WeatherReading</text></g></g></g><g transform="translate(3.429011037612589e-15 -248)"><g transform="translate(0 0)"><g transform="translate(-72.02734375 0)" fill="white"><rect x="0" y="0" width="144.0546875" height="192" rx="0" ry="0" stroke="none"/><g font-family="sans-serif" font-size="16" font-weight="normal" fill="#000000" text-anchor="end"><text xml:space="preserve" x="135.1640625" y="14.1" stroke="none">weather_id:</text><text xml:space="preserve" x="139.609375" y="14.1" stroke="none" text-anchor="start"></text><text xml:space="preserve" x="135.1640625" y="33.3" stroke="none" text-anchor="end">date_id:</text><text xml:space="preserve" x="139.609375" y="33.3" stroke="none" text-anchor="start"></text><text xml:space="preserve" x="135.1640625" y="52.5" stroke="none" text-anchor="end">temp_min:</text><text xml:space="preserve" x="139.609375" y="52.5" stroke="none" text-anchor="start"></text><text xml:space="preserve" x="135.1640625" y="71.7" stroke="none" text-anchor="end">temp_max:</text><text xml:space="preserve" x="139.609375" y="71.7" stroke="none" text-anchor="start"></text><text xml:space="preserve" x="135.1640625" y="90.89999999999999" stroke="none" text-anchor="end">temp_ave:</text><text xml:space="preserve" x="139.609375" y="90.89999999999999" stroke="none" text-anchor="start"></text><text xml:space="preserve" x="135.1640625" y="110.1" stroke="none" text-anchor="end">preciptitation_mm:</text><text xml:space="preserve" x="139.609375" y="110.1" stroke="none" text-anchor="start"></text><text xml:space="preserve" x="135.1640625" y="129.3" stroke="none" text-anchor="end">wind_direction:</text><text xml:space="preserve" x="139.609375" y="129.3" stroke="none" text-anchor="start"></text><text xml:space="preserve" x="135.1640625" y="148.5" stroke="none" text-anchor="end">wind_speed:</text><text xml:space="preserve" x="139.609375" y="148.5" stroke="none" text-anchor="start"></text><text xml:space="preserve" x="135.1640625" y="167.7" stroke="none" text-anchor="end">pressure:</text><text xml:space="preserve" x="139.609375" y="167.7" stroke="none" text-anchor="start"></text><text xml:space="preserve" x="135.1640625" y="186.9" stroke="none" text-anchor="end">:</text><text xml:space="preserve" x="139.609375" y="186.9" stroke="none" text-anchor="start"></text></g></g></g></g></g></g><g class="node"><g fill="#ffffff" stroke="#000000" stroke-width="4"><circle cx="-585.4855932625006" cy="315.50646500766027" r="52"/></g><g transform="translate(-585.4855932625006 315.50646500766027)"><g transform="scale(0.6718753281250001) translate(0 0)"><g transform="translate(0 0)"><g font-family="sans-serif" font-size="50" font-weight="normal" fill="#000000" text-anchor="middle"><text xml:space="preserve" x="0" y="13" stroke="none">Road</text></g></g></g><g transform="translate(-39.597979746446654 39.59797974644666)"><g transform="translate(0 0)"><g transform="translate(-98.7265625 0)" fill="white"><rect x="0" y="0" width="98.7265625" height="57.599999999999994" rx="0" ry="0" stroke="none"/><g font-family="sans-serif" font-size="16" font-weight="normal" fill="#000000" text-anchor="end"><text xml:space="preserve" x="89.8359375" y="14.1" stroke="none">road_id:</text><text xml:space="preserve" x="94.28125" y="14.1" stroke="none" text-anchor="start"></text><text xml:space="preserve" x="89.8359375" y="33.3" stroke="none" text-anchor="end">speed_limit:</text><text xml:space="preserve" x="94.28125" y="33.3" stroke="none" text-anchor="start"></text><text xml:space="preserve" x="89.8359375" y="52.5" stroke="none" text-anchor="end">road_name:</text><text xml:space="preserve" x="94.28125" y="52.5" stroke="none" text-anchor="start"></text></g></g></g></g></g></g><g class="node"><g fill="#ffffff" stroke="#000000" stroke-width="4"><circle cx="-207.999993968434" cy="97.5650526400235" r="52"/></g><g transform="translate(-207.999993968434 97.5650526400235)"><g transform="scale(0.6132816367187499) translate(0 0)"><g transform="translate(0 0)"><g font-family="sans-serif" font-size="50" font-weight="normal" fill="#000000" text-anchor="middle"><text xml:space="preserve" x="0" y="13" stroke="none">Crash</text></g></g></g><g transform="translate(-39.597979746446654 -250.79797974644666)"><g transform="translate(0 0)"><g transform="translate(-227.6953125 0)" fill="white"><rect x="0" y="0" width="227.6953125" height="211.2" rx="0" ry="0" stroke="none"/><g font-family="sans-serif" font-size="16" font-weight="normal" fill="#000000" text-anchor="end"><text xml:space="preserve" x="218.8046875" y="14.1" stroke="none">crash_id:</text><text xml:space="preserve" x="223.25" y="14.1" stroke="none" text-anchor="start"></text><text xml:space="preserve" x="218.8046875" y="33.3" stroke="none" text-anchor="end">time:</text><text xml:space="preserve" x="223.25" y="33.3" stroke="none" text-anchor="start"></text><text xml:space="preserve" x="218.8046875" y="52.5" stroke="none" text-anchor="end">date:</text><text xml:space="preserve" x="223.25" y="52.5" stroke="none" text-anchor="start"></text><text xml:space="preserve" x="218.8046875" y="71.7" stroke="none" text-anchor="end">longitude:</text><text xml:space="preserve" x="223.25" y="71.7" stroke="none" text-anchor="start"></text><text xml:space="preserve" x="218.8046875" y="90.89999999999999" stroke="none" text-anchor="end">latitude:</text><text xml:space="preserve" x="223.25" y="90.89999999999999" stroke="none" text-anchor="start"></text><text xml:space="preserve" x="218.8046875" y="110.1" stroke="none" text-anchor="end">total_bike_involved:</text><text xml:space="preserve" x="223.25" y="110.1" stroke="none" text-anchor="start"></text><text xml:space="preserve" x="218.8046875" y="129.3" stroke="none" text-anchor="end">total_truck_involved:</text><text xml:space="preserve" x="223.25" y="129.3" stroke="none" text-anchor="start"></text><text xml:space="preserve" x="218.8046875" y="148.5" stroke="none" text-anchor="end">total_heavy_truck_involved:</text><text xml:space="preserve" x="223.25" y="148.5" stroke="none" text-anchor="start"></text><text xml:space="preserve" x="218.8046875" y="167.7" stroke="none" text-anchor="end">total_motor_cycle_involved:</text><text xml:space="preserve" x="223.25" y="167.7" stroke="none" text-anchor="start"></text><text xml:space="preserve" x="218.8046875" y="186.9" stroke="none" text-anchor="end">total_other_vehicles_involved:</text><text xml:space="preserve" x="223.25" y="186.9" stroke="none" text-anchor="start"></text><text xml:space="preserve" x="218.8046875" y="206.1" stroke="none" text-anchor="end">total_pedestrians_involve:</text><text xml:space="preserve" x="223.25" y="206.1" stroke="none" text-anchor="start"></text></g></g></g></g></g></g><g class="node"><g fill="#ffffff" stroke="#000000" stroke-width="4"><circle cx="-864.4622620947865" cy="97.56505264002354" r="52"/></g><g transform="translate(-864.4622620947865 97.56505264002354)"><g transform="scale(0.5273442226562499) translate(0 0)"><g transform="translate(0 0)"><g font-family="sans-serif" font-size="50" font-weight="normal" fill="#000000" text-anchor="middle"><text xml:space="preserve" x="0" y="13" stroke="none">Region</text></g></g></g><g transform="translate(-56 -19.199999999999992)"><g transform="translate(0 0)"><g transform="translate(-111.1796875 0)" fill="white"><rect x="0" y="0" width="111.1796875" height="38.4" rx="0" ry="0" stroke="none"/><g font-family="sans-serif" font-size="16" font-weight="normal" fill="#000000" text-anchor="end"><text xml:space="preserve" x="102.2890625" y="14.1" stroke="none">region_id:</text><text xml:space="preserve" x="106.734375" y="14.1" stroke="none" text-anchor="start"></text><text xml:space="preserve" x="102.2890625" y="33.3" stroke="none" text-anchor="end">region_name:</text><text xml:space="preserve" x="106.734375" y="33.3" stroke="none" text-anchor="start"></text></g></g></g></g></g></g><g class="node"><g fill="#ffffff" stroke="#000000" stroke-width="4"><circle cx="116.40149648611532" cy="315.5064650076602" r="52"/></g><g transform="translate(116.40149648611532 315.5064650076602)"><g transform="scale(0.73828151171875) translate(0 0)"><g transform="translate(0 0)"><g font-family="sans-serif" font-size="50" font-weight="normal" fill="#000000" text-anchor="middle"><text xml:space="preserve" x="0" y="13" stroke="none">Date</text></g></g></g><g transform="translate(39.59797974644666 39.597979746446654)"><g transform="translate(0 0)"><g transform="translate(0 0)" fill="white"><rect x="0" y="0" width="112.0703125" height="76.8" rx="0" ry="0" stroke="none"/><g font-family="sans-serif" font-size="16" font-weight="normal" fill="#000000" text-anchor="end"><text xml:space="preserve" x="103.1796875" y="14.1" stroke="none">year:</text><text xml:space="preserve" x="107.625" y="14.1" stroke="none" text-anchor="start"></text><text xml:space="preserve" x="103.1796875" y="33.3" stroke="none" text-anchor="end">month:</text><text xml:space="preserve" x="107.625" y="33.3" stroke="none" text-anchor="start"></text><text xml:space="preserve" x="103.1796875" y="52.5" stroke="none" text-anchor="end">day:</text><text xml:space="preserve" x="107.625" y="52.5" stroke="none" text-anchor="start"></text><text xml:space="preserve" x="103.1796875" y="71.7" stroke="none" text-anchor="end">day_of_week:</text><text xml:space="preserve" x="107.625" y="71.7" stroke="none" text-anchor="start"></text></g></g></g></g></g></g><g class="node"><g fill="#ffffff" stroke="#000000" stroke-width="4"><circle cx="-52.65545024236516" cy="414.37281288879944" r="52"/></g><g transform="translate(-52.65545024236516 414.37281288879944)"><g transform="scale(0.31640693359374994) translate(0 0)"><g transform="translate(0 0)"><g font-family="sans-serif" font-size="50" font-weight="normal" fill="#000000" text-anchor="middle"><text xml:space="preserve" x="0" y="13" stroke="none">EventNature</text></g></g></g></g></g><g class="node"><g fill="#ffffff" stroke="#000000" stroke-width="4"><circle cx="-207.999993968434" cy="-247.64938549747075" r="52"/></g><g transform="translate(-207.999993968434 -247.64938549747075)"><g transform="scale(0.47265677734375) translate(0 0)"><g transform="translate(0 0)"><g font-family="sans-serif" font-size="50" font-weight="normal" fill="#000000" text-anchor="middle"><text xml:space="preserve" x="0" y="13" stroke="none">Severity</text></g></g></g></g></g><g class="node"><g fill="#ffffff" stroke="#000000" stroke-width="4"><circle cx="-345.1344219751893" cy="414.37281288879944" r="52"/></g><g transform="translate(-345.1344219751893 414.37281288879944)"><g transform="scale(0.36914125585937496) translate(0 0)"><g transform="translate(0 0)"><g font-family="sans-serif" font-size="50" font-weight="normal" fill="#000000" text-anchor="middle"><text xml:space="preserve" x="0" y="13" stroke="none">EventType</text></g></g></g></g></g></g></svg>